<svg xmlns="http://www.w3.org/2000/svg" fill="#F2F4F8" height="24" viewBox="0 0 32 32" width="24"><rect height="2" width="7" x="19" y="10"></rect><rect height="2" width="7" x="19" y="15"></rect><rect height="2" width="7" x="19" y="20"></rect><rect height="2" width="7" x="6" y="10"></rect><rect height="2" width="7" x="6" y="15"></rect><rect height="2" width="7" x="6" y="20"></rect><path d="M28,5H4A2.002,2.002,0,0,0,2,7V25a2.002,2.002,0,0,0,2,2H28a2.002,2.002,0,0,0,2-2V7A2.002,2.002,0,0,0,28,5ZM4,7H15V25H4ZM17,25V7H28V25Z"></path></svg>
